<svg width="18" height="19" viewBox="0 0 18 19" fill="none" xmlns="http://www.w3.org/2000/svg">
<path fill-rule="evenodd" clip-rule="evenodd" d="M13.7197 3.71967C14.0126 3.42678 14.4874 3.42678 14.7803 3.71967C15.0732 4.01256 15.0732 4.48744 14.7803 4.78033L10.0607 9.5L14.7803 14.2197C15.0732 14.5126 15.0732 14.9874 14.7803 15.2803C14.4874 15.5732 14.0126 15.5732 13.7197 15.2803L9 10.5607L4.28033 15.2803C3.98744 15.5732 3.51256 15.5732 3.21967 15.2803C2.92678 14.9874 2.92678 14.5126 3.21967 14.2197L7.93934 9.5L3.21967 4.78033C2.92678 4.48744 2.92678 4.01256 3.21967 3.71967C3.51256 3.42678 3.98744 3.42678 4.28033 3.71967L9 8.43934L13.7197 3.71967Z" fill="#281D1B"/>
</svg>
