<svg width="18" height="19" viewBox="0 0 18 19" fill="none" xmlns="http://www.w3.org/2000/svg">
<path fill-rule="evenodd" clip-rule="evenodd" d="M7.5 1.25C3.77208 1.25 0.75 4.27208 0.75 8C0.75 11.7279 3.77208 14.75 7.5 14.75C9.09376 14.75 10.5585 14.1976 11.7133 13.2739L15.9697 17.5303C16.2626 17.8232 16.7374 17.8232 17.0303 17.5303C17.3232 17.2374 17.3232 16.7626 17.0303 16.4697L12.7739 12.2133C13.6976 11.0585 14.25 9.59376 14.25 8C14.25 4.27208 11.2279 1.25 7.5 1.25ZM2.25 8C2.25 5.10051 4.60051 2.75 7.5 2.75C10.3995 2.75 12.75 5.10051 12.75 8C12.75 10.8995 10.3995 13.25 7.5 13.25C4.60051 13.25 2.25 10.8995 2.25 8Z" fill="#2E1814" fill-opacity="0.62"/>
</svg>
